<?xml version="1.0" encoding="UTF-8"?>
<svg id="Layer_1" xmlns="http://www.w3.org/2000/svg" version="1.1" viewBox="0 0 1000 1000">
  <!-- Generator: Adobe Illustrator 30.0.0, SVG Export Plug-In . SVG Version: 2.1.1 Build 123)  -->
  <defs>
    <style>
      .st0 {
        fill: #13253d;
      }

      .st1 {
        fill: #d6bd95;
      }
    </style>
  </defs>
  <path class="st0" d="M229.5,432.92s8.9-117.13,6.92-142.23c44.42,30.12,271.38,277.73,274.72,492.86-45.63-79.4-89.62-248.85-268.33-392.76l-13.31,42.14Z"/>
  <path class="st1" d="M519.66,637.82s8.82-169.15-210.22-421.36l-40.77,69.97s172.5,122,250.99,351.39Z"/>
  <path class="st1" d="M536.7,608.61s39.85-191.06-79.1-365.38l-34.07,62.06s106.79,129.6,113.17,303.32Z"/>
  <path class="st0" d="M527.27,701.71v-37.65s113.4-268.79,124.35-309.18c10.95-40.39,17.57-98.34-48.6-99.71v-9.58h167.48v9.13s-53.16-1.14-87.85,74.61c-34.68,75.75-155.39,372.38-155.39,372.38Z"/>
</svg>